<svg viewBox="0 0 929 929" xmlns="http://www.w3.org/2000/svg" fill-rule="evenodd" clip-rule="evenodd" stroke-linejoin="round" stroke-miterlimit="1.414"><path d="M545.336 746.837c0-23.13-18.763-41.883-41.878-41.883H419.7c-23.116 0-41.88 18.754-41.88 41.883v116.704c0 23.13 18.764 41.884 41.88 41.884h83.758c23.115 0 41.878-18.754 41.878-41.884V746.837z" fill="#5e8246"/><path d="M632.58 782.09c0-8.879-7.208-16.09-16.087-16.09H310.67c-8.88 0-16.09 7.211-16.09 16.09v32.18c0 8.88 7.21 16.091 16.09 16.091h305.824c8.88 0 16.086-7.211 16.086-16.09v-32.18zM634.063 866.152c0-8.879-7.207-16.09-16.086-16.09H312.153c-8.88 0-16.09 7.211-16.09 16.09v32.18c0 8.88 7.21 16.091 16.09 16.091h305.824c8.88 0 16.086-7.211 16.086-16.09v-32.18z" fill="#5e8246"/><path d="M797.16 357.937c0-189.31-148.324-343-331.004-343h-.155c-182.685 0-331.001 153.69-331.001 343v120c0 171.45 207.199 338.46 286.612 343 16.692.95 92.117 0 44.389 0h31.474c102.145 0 299.685-153.69 299.685-343v-120z" fill="#bcce72"/><path d="M797.16 474.937c-142.485-102.39-143.392 174-245.115 174H395.557c-101.73 0-134.666-299.49-260.556-184-.447 103.3 109.484 356 286.611 356h101.916c174.187 0 274.221-256.53 273.633-346z" fill="#79a172"/><text x="748" y="270" font-family="'ComicSansMS','Comic Sans MS',cursive" font-size="192.654" fill="#3d6024" transform="translate(-509.633 170.471) scale(1.10746)">$</text><text x="748" y="270" font-family="'ComicSansMS','Comic Sans MS',cursive" font-size="192.654" fill="#3d6024" transform="translate(-363.742 170.471) scale(1.10746)">$</text><path d="M389 648.69h169.16c-69.97-124.67-169.16 0-169.16 0z" fill="#3d6024"/><ellipse cx="1061.29" cy="1042.47" rx="94.289" ry="94.531" fill="#fff937" transform="translate(-598.711 -867)"/><path d="M462.58 270v-94.53h94.29c0 52.17-42.25 94.53-94.29 94.53zm0-94.53h-94.29c0-52.17 42.25-94.53 94.29-94.53v94.53z" fill="#79a172"/></svg>