<svg viewBox="0 0 929 929" xmlns="http://www.w3.org/2000/svg" fill-rule="evenodd" clip-rule="evenodd" stroke-linejoin="round" stroke-miterlimit="1.414"><path d="M264.365 803.952c0-12.072-9.793-21.86-21.858-21.86H198.79c-12.065 0-21.859 9.788-21.859 21.86v60.913c0 12.073 9.794 21.861 21.859 21.861h43.717c12.065 0 21.858-9.788 21.858-21.86v-60.914z" fill="#c7c7c7"/><path d="M309.901 822.352c0-4.634-3.761-8.398-8.396-8.398H141.882c-4.635 0-8.399 3.764-8.399 8.398v16.797c0 4.634 3.764 8.398 8.399 8.398h159.623c4.635 0 8.396-3.764 8.396-8.398v-16.797zM310.676 866.228c0-4.634-3.762-8.398-8.396-8.398H142.656c-4.635 0-8.398 3.764-8.398 8.398v16.797c0 4.634 3.763 8.398 8.398 8.398H302.28c4.634 0 8.396-3.764 8.396-8.398v-16.797z" fill="#a2a2a2"/><path d="M395.803 600.967c0-98.81-77.417-179.027-172.766-179.027h-.08c-95.352 0-172.765 80.218-172.765 179.027v62.634c0 89.487 108.146 176.657 149.595 179.027 8.713.496 48.08 0 23.17 0h16.427c53.314 0 156.42-80.218 156.42-179.027v-62.634z" fill="#ddc98d"/><path d="M395.804 662.035c-74.37-53.442-74.843 90.818-127.937 90.818h-81.679c-53.097 0-70.288-156.317-135.996-96.038-.233 53.917 57.145 185.813 149.596 185.813h53.195c90.916 0 143.128-133.895 142.82-180.593z" fill="#d3b38a"/><path d="M203.782 602.627c0-9.828-7.983-17.81-17.808-17.81h-.013c-9.824 0-17.807 7.982-17.807 17.81v31.68c0 9.828 7.983 17.81 17.807 17.81h.013c9.825 0 17.808-7.982 17.808-17.81v-31.68zM278.082 602.627c0-9.828-7.983-17.81-17.808-17.81h-.013c-9.824 0-17.807 7.982-17.807 17.81v31.68c0 9.828 7.983 17.81 17.807 17.81h.013c9.825 0 17.808-7.982 17.808-17.81v-31.68zM182.766 752.725h88.292c-36.52-65.071-88.292 0-88.292 0z" fill="#694900"/><ellipse cx="1061.29" cy="1042.47" rx="94.289" ry="94.531" fill="#efe1bd" transform="matrix(.52195 0 0 .52195 -332.766 -38.384)"/><path d="M221.17 555.069v-49.34h49.215c0 27.23-22.052 49.34-49.214 49.34zm0-49.34h-49.214c0-27.23 22.053-49.34 49.215-49.34v49.34z" fill="#c7a67c"/><g><path d="M759.365 797.952c0-12.072-9.793-21.86-21.858-21.86H693.79c-12.065 0-21.859 9.788-21.859 21.86v60.914c0 12.072 9.794 21.86 21.859 21.86h43.717c12.065 0 21.858-9.788 21.858-21.86v-60.914z" fill="#c7c7c7"/><path d="M804.901 816.352c0-4.634-3.761-8.398-8.396-8.398H636.882c-4.635 0-8.398 3.764-8.398 8.398v16.797c0 4.634 3.763 8.398 8.398 8.398h159.623c4.635 0 8.396-3.764 8.396-8.398v-16.797zM805.676 860.228c0-4.634-3.762-8.398-8.396-8.398H637.656c-4.635 0-8.398 3.764-8.398 8.398v16.797c0 4.634 3.763 8.398 8.398 8.398H797.28c4.634 0 8.396-3.764 8.396-8.398v-16.797z" fill="#a2a2a2"/><path d="M890.803 594.967c0-98.81-77.417-179.027-172.766-179.027h-.08c-95.352 0-172.765 80.218-172.765 179.027v62.634c0 89.487 108.146 176.658 149.595 179.027 8.713.496 48.08 0 23.17 0h16.427c53.314 0 156.42-80.218 156.42-179.027v-62.634z" fill="#ddc98d"/><path d="M890.804 656.035c-74.37-53.442-74.843 90.819-127.937 90.819h-81.679c-53.097 0-70.288-156.318-135.996-96.038-.233 53.917 57.145 185.812 149.596 185.812h53.195c90.916 0 143.128-133.894 142.82-180.593z" fill="#d3b38a"/><path d="M698.782 596.627c0-9.828-7.983-17.81-17.808-17.81h-.013c-9.824 0-17.807 7.982-17.807 17.81v31.68c0 9.828 7.983 17.81 17.807 17.81h.013c9.825 0 17.808-7.982 17.808-17.81v-31.68zM773.082 596.627c0-9.828-7.983-17.81-17.807-17.81h-.014c-9.824 0-17.807 7.982-17.807 17.81v31.68c0 9.828 7.983 17.81 17.807 17.81h.014c9.824 0 17.807-7.982 17.807-17.81v-31.68zM677.766 746.725h88.292c-36.52-65.071-88.292 0-88.292 0z" fill="#694900"/><ellipse cx="1061.29" cy="1042.47" rx="94.289" ry="94.531" fill="#efe1bd" transform="matrix(.52195 0 0 .52195 162.234 -44.384)"/><path d="M716.17 549.069v-49.34h49.215c0 27.23-22.052 49.34-49.214 49.34zm0-49.34h-49.214c0-27.23 22.053-49.34 49.215-49.34v49.34z" fill="#c7a67c"/></g><g><path d="M505.868 418.258c0-12.073-9.793-21.861-21.858-21.861h-43.717c-12.065 0-21.859 9.788-21.859 21.86v60.914c0 12.072 9.794 21.86 21.859 21.86h43.717c12.065 0 21.858-9.788 21.858-21.86v-60.913z" fill="#c7c7c7"/><path d="M551.404 436.658c0-4.635-3.761-8.398-8.396-8.398H383.385c-4.635 0-8.399 3.763-8.399 8.398v16.796c0 4.635 3.764 8.399 8.399 8.399h159.623c4.635 0 8.396-3.764 8.396-8.399v-16.796zM552.179 480.534c0-4.635-3.762-8.399-8.396-8.399H384.159c-4.635 0-8.398 3.764-8.398 8.399v16.796c0 4.635 3.763 8.398 8.398 8.398h159.624c4.634 0 8.396-3.763 8.396-8.398v-16.796z" fill="#a2a2a2"/><path d="M637.306 215.273c0-98.81-77.417-179.028-172.766-179.028h-.08c-95.352 0-172.765 80.218-172.765 179.028v62.633c0 89.488 108.146 176.658 149.595 179.028 8.713.496 48.08 0 23.17 0h16.427c53.314 0 156.42-80.218 156.42-179.028v-62.633z" fill="#ffce37"/><path d="M637.307 276.34c-74.37-53.442-74.843 90.82-127.937 90.82H427.69c-53.097 0-70.288-156.319-135.996-96.039-.233 53.917 57.145 185.813 149.596 185.813h53.195c90.916 0 143.128-133.895 142.82-180.594z" fill="#ffaa37"/><path d="M445.285 216.932c0-9.828-7.983-17.81-17.808-17.81h-.013c-9.824 0-17.807 7.982-17.807 17.81v31.68c0 9.828 7.983 17.81 17.807 17.81h.013c9.825 0 17.808-7.982 17.808-17.81v-31.68zM519.585 216.932c0-9.828-7.983-17.81-17.807-17.81h-.014c-9.824 0-17.807 7.982-17.807 17.81v31.68c0 9.828 7.983 17.81 17.807 17.81h.014c9.824 0 17.807-7.982 17.807-17.81v-31.68zM424.269 367.03h88.292c-36.52-65.07-88.292 0-88.292 0z" fill="#694900"/><ellipse cx="1061.29" cy="1042.47" rx="94.289" ry="94.531" fill="#fff937" transform="matrix(.52195 0 0 .52195 -91.263 -424.078)"/><path d="M462.674 169.374v-49.34h49.214c0 27.23-22.052 49.34-49.214 49.34zm0-49.34h-49.215c0-27.229 22.053-49.339 49.215-49.339v49.34z" fill="#ffaa37"/></g></svg>