<?xml version="1.0" encoding="UTF-8" standalone="no"?>
<!DOCTYPE svg PUBLIC "-//W3C//DTD SVG 1.1//EN" "http://www.w3.org/Graphics/SVG/1.1/DTD/svg11.dtd">
<svg width="100%" height="100%" viewBox="0 0 929 929" version="1.1" xmlns="http://www.w3.org/2000/svg" xmlns:xlink="http://www.w3.org/1999/xlink" xml:space="preserve" xmlns:serif="http://www.serif.com/" style="fill-rule:evenodd;clip-rule:evenodd;stroke-linejoin:round;stroke-miterlimit:1.41421;">
    <g id="Oauth">
        <g transform="matrix(0.443163,0,0,2.1556,-53.8199,-2938.01)">
            <path d="M1352,1709.43C1352,1698.7 1309.66,1690 1257.5,1690L1068.5,1690C1016.34,1690 974,1698.7 974,1709.43L974,1763.57C974,1774.3 1016.34,1783 1068.5,1783L1257.5,1783C1309.66,1783 1352,1774.3 1352,1763.57L1352,1709.43Z" style="fill:rgb(147,155,177);"/>
        </g>
        <g transform="matrix(0.89418,0,0,0.692055,-576.352,-403.573)">
            <path d="M1352,1713.25C1352,1700.42 1343.94,1690 1334.01,1690L991.994,1690C982.063,1690 974,1700.42 974,1713.25L974,1759.75C974,1772.58 982.063,1783 991.994,1783L1334.01,1783C1343.94,1783 1352,1772.58 1352,1759.75L1352,1713.25Z" style="fill:rgb(118,125,143);"/>
        </g>
        <g transform="matrix(0.89418,0,0,0.692055,-574.868,-319.511)">
            <path d="M1352,1713.25C1352,1700.42 1343.94,1690 1334.01,1690L991.994,1690C982.063,1690 974,1700.42 974,1713.25L974,1759.75C974,1772.58 982.063,1783 991.994,1783L1334.01,1783C1343.94,1783 1352,1772.58 1352,1759.75L1352,1713.25Z" style="fill:rgb(118,125,143);"/>
        </g>
        <g transform="matrix(0.965023,0,0,1,-399.623,-848.063)">
            <path d="M1240.16,1206C1240.16,1016.69 1086.46,863 897.159,863L896.998,863C707.692,863 554,1016.69 554,1206L554,1326C554,1497.45 768.709,1664.46 851,1669C868.297,1669.95 946.456,1669 896.998,1669L929.613,1669C1035.46,1669 1240.16,1515.31 1240.16,1326L1240.16,1206Z" style="fill:rgb(131,147,207);"/>
        </g>
        <g transform="matrix(0.965023,0,0,1,-644.738,-955.063)">
            <path d="M1494.16,1430C1346.51,1327.61 1345.57,1604 1240.16,1604L1078,1604C972.584,1604 938.453,1304.51 808,1420C807.537,1523.3 921.453,1776 1105,1776C1102,1776 1210.61,1776 1210.61,1776C1391.11,1776 1494.77,1519.47 1494.16,1430Z" style="fill:rgb(106,109,198);"/>
        </g>
        <g transform="matrix(1.26409,0,0,1.59305,-932.16,-1696.18)">
            <path d="M1077,1291.42C1077,1279.6 1064.9,1270 1050.01,1270L1049.99,1270C1035.1,1270 1023,1279.6 1023,1291.42L1023,1329.52C1023,1341.34 1035.1,1350.94 1049.99,1350.94L1050.01,1350.94C1064.9,1350.94 1077,1341.34 1077,1329.52L1077,1291.42Z" style="fill:rgb(58,61,79);"/>
        </g>
        <g transform="matrix(1.26409,0,0,1.59305,-789.808,-1696.18)">
            <path d="M1077,1291.42C1077,1279.6 1064.9,1270 1050.01,1270L1049.99,1270C1035.1,1270 1023,1279.6 1023,1291.42L1023,1329.52C1023,1341.34 1035.1,1350.94 1049.99,1350.94L1050.01,1350.94C1064.9,1350.94 1077,1341.34 1077,1329.52L1077,1291.42Z" style="fill:rgb(58,61,79);"/>
        </g>
        <g transform="matrix(1,0,0,1,-682,-914)">
            <path d="M1071,1562.69C1071,1562.69 1182.72,1562.69 1240.16,1562.69C1170.19,1438.02 1071,1562.69 1071,1562.69Z" style="fill:rgb(58,61,79);"/>
        </g>
    </g>
    <g transform="matrix(1.3822,0,0,1.3822,-177.624,62.5981)">
        <text x="394.357px" y="147.57px" style="font-family:'Futura-Medium', 'Futura', sans-serif;font-weight:500;font-size:192.654px;fill:rgb(214,214,243);">A</text>
    </g>
</svg>
