<svg viewBox="0 0 929 929" xmlns="http://www.w3.org/2000/svg" fill-rule="evenodd" clip-rule="evenodd" stroke-linejoin="round" stroke-miterlimit="1.414"><path d="M239.226 828.978c0-13.115-10.64-23.748-23.746-23.748h-47.49c-13.107 0-23.746 10.633-23.746 23.748v66.172c0 13.114 10.639 23.747 23.745 23.747h47.491c13.107 0 23.746-10.633 23.746-23.747v-66.172z" fill="#c7c7c7"/><path d="M288.693 848.966c0-5.034-4.087-9.123-9.121-9.123H106.169c-5.035 0-9.123 4.089-9.123 9.123v18.247c0 5.034 4.088 9.123 9.123 9.123h173.403c5.034 0 9.12-4.089 9.12-9.123v-18.247zM289.534 896.63c0-5.035-4.086-9.123-9.121-9.123H107.01c-5.035 0-9.123 4.088-9.123 9.123v18.246c0 5.035 4.088 9.123 9.123 9.123h173.403c5.035 0 9.121-4.088 9.121-9.123V896.63z" fill="#a2a2a2"/><path d="M382.01 608.47c0-107.339-84.1-194.481-187.68-194.481h-.088C90.66 413.989 6.564 501.13 6.564 608.47v68.04c0 97.212 117.482 191.907 162.51 194.482 9.464.538 52.23 0 25.168 0h17.846c57.916 0 169.922-87.143 169.922-194.482v-68.04z" fill="#ddc98d"/><path d="M382.01 674.81c-80.79-58.055-81.303 98.658-138.98 98.658H154.3c-57.68 0-76.356-169.811-147.736-104.328-.253 58.571 62.078 201.853 162.51 201.853h57.786c98.765 0 155.484-145.453 155.15-196.183z" fill="#d3b38a"/><path d="M173.413 610.273c0-10.676-8.673-19.347-19.345-19.347h-.014c-10.673 0-19.345 8.67-19.345 19.347v34.415c0 10.676 8.672 19.348 19.345 19.348h.014c10.672 0 19.345-8.672 19.345-19.348v-34.415zM254.127 610.273c0-10.676-8.673-19.347-19.345-19.347h-.015c-10.672 0-19.344 8.67-19.344 19.347v34.415c0 10.676 8.672 19.348 19.344 19.348h.015c10.672 0 19.345-8.672 19.345-19.348v-34.415zM150.582 773.328h95.915c-39.674-70.688-95.915 0-95.915 0z" fill="#694900"/><ellipse cx="1061.29" cy="1042.47" rx="94.289" ry="94.531" fill="#efe1bd" transform="matrix(.567 0 0 .567 -409.452 -86.071)"/><path d="M192.303 558.61v-53.599h53.462c0 29.581-23.956 53.6-53.462 53.6zm0-53.599H138.84c0-29.58 23.956-53.598 53.463-53.598v53.598z" fill="#c7a67c"/><g><path d="M776.956 827.46c0-13.114-10.64-23.747-23.746-23.747h-47.49c-13.107 0-23.746 10.633-23.746 23.748v66.171c0 13.115 10.64 23.748 23.746 23.748h47.49c13.107 0 23.746-10.633 23.746-23.748v-66.171z" fill="#c7c7c7"/><path d="M826.423 847.45c0-5.035-4.087-9.124-9.121-9.124H643.899c-5.035 0-9.123 4.089-9.123 9.123v18.247c0 5.034 4.088 9.123 9.123 9.123h173.403c5.034 0 9.12-4.089 9.12-9.123v-18.247zM827.264 895.112c0-5.034-4.086-9.123-9.12-9.123H644.74c-5.035 0-9.123 4.089-9.123 9.123v18.247c0 5.034 4.088 9.123 9.123 9.123h173.403c5.035 0 9.121-4.089 9.121-9.123v-18.247z" fill="#a2a2a2"/><path d="M919.74 606.953c0-107.339-84.1-194.481-187.68-194.481h-.088c-103.582 0-187.678 87.142-187.678 194.481v68.04c0 97.213 117.482 191.908 162.51 194.482 9.464.539 52.23 0 25.168 0h17.846c57.917 0 169.922-87.142 169.922-194.481v-68.04z" fill="#ddc98d"/><path d="M919.74 673.293c-80.789-58.056-81.303 98.658-138.98 98.658h-88.73c-57.68 0-76.355-169.812-147.735-104.328-.254 58.57 62.078 201.852 162.51 201.852h57.786c98.764 0 155.484-145.453 155.15-196.182z" fill="#d3b38a"/><path d="M711.143 608.756c0-10.676-8.673-19.348-19.345-19.348h-.014c-10.672 0-19.345 8.672-19.345 19.348v34.414c0 10.677 8.673 19.348 19.345 19.348h.014c10.672 0 19.345-8.671 19.345-19.348v-34.414zM791.857 608.756c0-10.676-8.673-19.348-19.345-19.348h-.014c-10.673 0-19.345 8.672-19.345 19.348v34.414c0 10.677 8.672 19.348 19.345 19.348h.014c10.672 0 19.345-8.671 19.345-19.348v-34.414zM688.313 771.81h95.914c-39.673-70.687-95.914 0-95.914 0z" fill="#694900"/><ellipse cx="1061.29" cy="1042.47" rx="94.289" ry="94.531" fill="#efe1bd" transform="matrix(.567 0 0 .567 128.278 -87.589)"/><path d="M730.033 557.093v-53.599h53.462c0 29.58-23.955 53.599-53.462 53.599zm0-53.599H676.57c0-29.58 23.956-53.599 53.463-53.599v53.6z" fill="#c7a67c"/></g><g><path d="M507.576 421.99c0-13.115-10.64-23.748-23.746-23.748h-47.49c-13.107 0-23.746 10.633-23.746 23.747v66.172c0 13.115 10.639 23.748 23.745 23.748h47.491c13.107 0 23.746-10.633 23.746-23.748v-66.172z" fill="#c7c7c7"/><path d="M557.043 441.978c0-5.035-4.087-9.123-9.121-9.123H374.519c-5.035 0-9.123 4.088-9.123 9.123v18.246c0 5.035 4.088 9.124 9.123 9.124h173.403c5.034 0 9.12-4.09 9.12-9.124v-18.246zM557.884 489.641c0-5.034-4.086-9.123-9.12-9.123H375.36c-5.035 0-9.123 4.089-9.123 9.123v18.247c0 5.034 4.088 9.123 9.123 9.123h173.403c5.035 0 9.121-4.089 9.121-9.123V489.64z" fill="#a2a2a2"/><path d="M650.36 201.482C650.36 94.142 566.26 7 462.68 7h-.088C359.01 7 274.914 94.143 274.914 201.482v68.04c0 97.213 117.482 191.908 162.51 194.482 9.464.539 52.23 0 25.168 0h17.846c57.917 0 169.922-87.142 169.922-194.482v-68.04z" fill="#ffce37"/><path d="M650.36 267.821c-80.789-58.055-81.303 98.659-138.98 98.659h-88.73c-57.68 0-76.356-169.812-147.736-104.329-.253 58.572 62.079 201.853 162.51 201.853h57.787c98.764 0 155.483-145.453 155.15-196.183z" fill="#ffaa37"/><path d="M441.763 203.285c0-10.677-8.673-19.348-19.345-19.348h-.014c-10.673 0-19.345 8.671-19.345 19.348v34.414c0 10.677 8.672 19.348 19.345 19.348h.014c10.672 0 19.345-8.671 19.345-19.348v-34.414zM522.477 203.285c0-10.677-8.673-19.348-19.345-19.348h-.014c-10.673 0-19.345 8.671-19.345 19.348v34.414c0 10.677 8.672 19.348 19.345 19.348h.014c10.672 0 19.345-8.671 19.345-19.348v-34.414zM418.933 366.34h95.914c-39.673-70.688-95.914 0-95.914 0z" fill="#694900"/><ellipse cx="1061.29" cy="1042.47" rx="94.289" ry="94.531" fill="#fff937" transform="matrix(.567 0 0 .567 -141.102 -493.06)"/><path d="M460.653 151.622v-53.6h53.462c0 29.581-23.956 53.6-53.462 53.6zm0-53.6H407.19c0-29.58 23.956-53.598 53.463-53.598v53.599z" fill="#ffaa37"/></g></svg>