<svg viewBox="0 0 929 929" xmlns="http://www.w3.org/2000/svg" fill-rule="evenodd" clip-rule="evenodd" stroke-linejoin="round" stroke-miterlimit="1.414"><path d="M545.336 746.837c0-23.13-18.763-41.883-41.878-41.883H419.7c-23.116 0-41.88 18.754-41.88 41.883v116.704c0 23.13 18.764 41.884 41.88 41.884h83.758c23.115 0 41.878-18.754 41.878-41.884V746.837z" fill="#939bb1"/><path d="M632.58 782.09c0-8.879-7.208-16.09-16.087-16.09H310.67c-8.88 0-16.09 7.211-16.09 16.09v32.18c0 8.88 7.21 16.091 16.09 16.091h305.824c8.88 0 16.086-7.211 16.086-16.09v-32.18zM634.063 866.152c0-8.879-7.207-16.09-16.086-16.09H312.153c-8.88 0-16.09 7.211-16.09 16.09v32.18c0 8.88 7.21 16.091 16.09 16.091h305.824c8.88 0 16.086-7.211 16.086-16.09v-32.18z" fill="#767d8f"/><path d="M797.16 357.937c0-189.31-148.324-343-331.004-343h-.155c-182.685 0-331.001 153.69-331.001 343v120c0 171.45 207.199 338.46 286.612 343 16.692.95 92.117 0 44.389 0h31.474c102.145 0 299.685-153.69 299.685-343v-120z" fill="#8393cf"/><path d="M797.16 474.937c-142.485-102.39-143.392 174-245.115 174H395.557c-101.73 0-134.666-299.49-260.556-184-.447 103.3 109.484 356 286.611 356h101.916c174.187 0 274.221-256.53 273.633-346z" fill="#6a6dc6"/><path d="M429.265 361.117c0-18.83-15.296-34.124-34.118-34.124h-.025c-18.822 0-34.118 15.294-34.118 34.124v60.695c0 18.83 15.296 34.123 34.118 34.123h.025c18.822 0 34.118-15.293 34.118-34.123v-60.695zM571.617 361.117c0-18.83-15.296-34.124-34.118-34.124h-.025c-18.822 0-34.118 15.294-34.118 34.124v60.695c0 18.83 15.296 34.123 34.118 34.123h.025c18.822 0 34.118-15.293 34.118-34.123v-60.695zM389 648.69h169.16c-69.97-124.67-169.16 0-169.16 0z" fill="#3a3d4f"/><g><text x="394.357" y="147.57" font-family="'Futura-Medium','Futura',sans-serif" font-weight="500" font-size="192.654" fill="#d6d6f3" transform="translate(-177.624 62.598) scale(1.3822)">A</text></g></svg>